<mxfile host="app.diagrams.net" modified="2022-12-09T09:35:42.897Z" agent="5.0 (Windows NT 10.0; WOW64) AppleWebKit/537.36 (KHTML, like Gecko) Chrome/83.0.4103.97 Safari/537.36" etag="ar6GeECukxpv8kRZsy-8" version="20.5.3" type="github">
  <diagram id="27kAklVtZDy5NFnEnHVX" name="第 1 页">
    <mxGraphModel dx="1128" dy="597" grid="1" gridSize="10" guides="1" tooltips="1" connect="1" arrows="1" fold="1" page="1" pageScale="1" pageWidth="827" pageHeight="1169" math="0" shadow="0">
      <root>
        <mxCell id="0" />
        <mxCell id="1" parent="0" />
        <mxCell id="Xplw4VOxn85V67Cjq5g1-1" value="期初" style="rounded=0;whiteSpace=wrap;html=1;fontSize=7;strokeColor=#3333FF;" vertex="1" parent="1">
          <mxGeometry x="210" y="30" width="75" height="20" as="geometry" />
        </mxCell>
        <mxCell id="Xplw4VOxn85V67Cjq5g1-2" value="&lt;font style=&quot;font-size: 12px;&quot;&gt;收款（红冲）&lt;/font&gt;" style="rounded=0;whiteSpace=wrap;html=1;fontSize=7;strokeColor=#3333FF;" vertex="1" parent="1">
          <mxGeometry x="310" y="30" width="75" height="20" as="geometry" />
        </mxCell>
        <mxCell id="Xplw4VOxn85V67Cjq5g1-3" value="采购" style="rounded=0;whiteSpace=wrap;html=1;fontSize=7;strokeColor=#3333FF;" vertex="1" parent="1">
          <mxGeometry x="414" y="30" width="75" height="20" as="geometry" />
        </mxCell>
        <mxCell id="Xplw4VOxn85V67Cjq5g1-4" value="需求开发" style="rounded=0;whiteSpace=wrap;html=1;fontSize=7;strokeColor=#3333FF;" vertex="1" parent="1">
          <mxGeometry x="520" y="30" width="75" height="20" as="geometry" />
        </mxCell>
        <mxCell id="Xplw4VOxn85V67Cjq5g1-5" value="升级" style="rounded=0;whiteSpace=wrap;html=1;fontSize=7;strokeColor=#3333FF;" vertex="1" parent="1">
          <mxGeometry x="310" y="80" width="75" height="20" as="geometry" />
        </mxCell>
        <mxCell id="Xplw4VOxn85V67Cjq5g1-6" value="担保" style="rounded=0;whiteSpace=wrap;html=1;fontSize=7;strokeColor=#3333FF;" vertex="1" parent="1">
          <mxGeometry x="210" y="80" width="75" height="20" as="geometry" />
        </mxCell>
        <mxCell id="Xplw4VOxn85V67Cjq5g1-7" value="过期" style="rounded=0;whiteSpace=wrap;html=1;fontSize=7;strokeColor=#3333FF;" vertex="1" parent="1">
          <mxGeometry x="414" y="80" width="75" height="20" as="geometry" />
        </mxCell>
        <mxCell id="Xplw4VOxn85V67Cjq5g1-13" value="" style="edgeStyle=orthogonalEdgeStyle;rounded=0;orthogonalLoop=1;jettySize=auto;html=1;fontSize=12;strokeColor=#3333FF;" edge="1" parent="1" source="Xplw4VOxn85V67Cjq5g1-8" target="Xplw4VOxn85V67Cjq5g1-12">
          <mxGeometry relative="1" as="geometry">
            <Array as="points">
              <mxPoint x="240" y="140" />
              <mxPoint x="240" y="140" />
            </Array>
          </mxGeometry>
        </mxCell>
        <mxCell id="Xplw4VOxn85V67Cjq5g1-8" value="" style="swimlane;startSize=0;fontSize=12;strokeColor=#3333FF;" vertex="1" parent="1">
          <mxGeometry x="180" width="430" height="130" as="geometry" />
        </mxCell>
        <mxCell id="Xplw4VOxn85V67Cjq5g1-27" value="&lt;span style=&quot;font-size: 13.3333px;&quot;&gt;erp涉及余额功能&lt;/span&gt;" style="text;html=1;align=center;verticalAlign=middle;resizable=0;points=[];autosize=1;strokeColor=none;fillColor=none;fontSize=12;" vertex="1" parent="Xplw4VOxn85V67Cjq5g1-8">
          <mxGeometry x="-2.5" width="120" height="30" as="geometry" />
        </mxCell>
        <mxCell id="Xplw4VOxn85V67Cjq5g1-15" value="" style="edgeStyle=orthogonalEdgeStyle;rounded=0;orthogonalLoop=1;jettySize=auto;html=1;fontSize=12;strokeColor=#3333FF;" edge="1" parent="1" source="Xplw4VOxn85V67Cjq5g1-12" target="Xplw4VOxn85V67Cjq5g1-14">
          <mxGeometry relative="1" as="geometry" />
        </mxCell>
        <mxCell id="Xplw4VOxn85V67Cjq5g1-12" value="余额变动流水" style="whiteSpace=wrap;html=1;fontStyle=1;startSize=0;strokeColor=#3333FF;" vertex="1" parent="1">
          <mxGeometry x="180" y="210" width="120" height="60" as="geometry" />
        </mxCell>
        <mxCell id="Xplw4VOxn85V67Cjq5g1-14" value="代理商余额汇总" style="whiteSpace=wrap;html=1;fontStyle=1;startSize=0;strokeColor=#3333FF;" vertex="1" parent="1">
          <mxGeometry x="490" y="210" width="120" height="60" as="geometry" />
        </mxCell>
        <mxCell id="Xplw4VOxn85V67Cjq5g1-26" style="edgeStyle=orthogonalEdgeStyle;rounded=0;orthogonalLoop=1;jettySize=auto;html=1;entryX=0.5;entryY=0;entryDx=0;entryDy=0;fontSize=12;strokeColor=#FF0F1F;" edge="1" parent="1" source="Xplw4VOxn85V67Cjq5g1-16" target="Xplw4VOxn85V67Cjq5g1-24">
          <mxGeometry relative="1" as="geometry">
            <Array as="points">
              <mxPoint x="240" y="480" />
              <mxPoint x="240" y="480" />
            </Array>
          </mxGeometry>
        </mxCell>
        <mxCell id="Xplw4VOxn85V67Cjq5g1-16" value="" style="swimlane;startSize=0;fontSize=12;strokeColor=#FF0F1F;" vertex="1" parent="1">
          <mxGeometry x="180" y="330" width="430" height="130" as="geometry" />
        </mxCell>
        <mxCell id="Xplw4VOxn85V67Cjq5g1-17" value="saas涉及功能点" style="text;html=1;align=center;verticalAlign=middle;resizable=0;points=[];autosize=1;strokeColor=none;fillColor=none;fontSize=12;" vertex="1" parent="Xplw4VOxn85V67Cjq5g1-16">
          <mxGeometry x="-10" y="10" width="120" height="30" as="geometry" />
        </mxCell>
        <mxCell id="Xplw4VOxn85V67Cjq5g1-19" value="期初" style="rounded=0;whiteSpace=wrap;html=1;fontSize=7;strokeColor=#FF0F1F;" vertex="1" parent="Xplw4VOxn85V67Cjq5g1-16">
          <mxGeometry x="20" y="50" width="75" height="20" as="geometry" />
        </mxCell>
        <mxCell id="Xplw4VOxn85V67Cjq5g1-20" value="&lt;font style=&quot;font-size: 12px;&quot;&gt;收款（红冲）&lt;/font&gt;" style="rounded=0;whiteSpace=wrap;html=1;fontSize=7;strokeColor=#FF0F1F;" vertex="1" parent="Xplw4VOxn85V67Cjq5g1-16">
          <mxGeometry x="120" y="50" width="75" height="20" as="geometry" />
        </mxCell>
        <mxCell id="Xplw4VOxn85V67Cjq5g1-21" value="过期" style="rounded=0;whiteSpace=wrap;html=1;fontSize=7;strokeColor=#FF0F1F;" vertex="1" parent="Xplw4VOxn85V67Cjq5g1-16">
          <mxGeometry x="233" y="50" width="75" height="20" as="geometry" />
        </mxCell>
        <mxCell id="Xplw4VOxn85V67Cjq5g1-22" value="销售订单" style="rounded=0;whiteSpace=wrap;html=1;fontSize=7;strokeColor=#FF0F1F;" vertex="1" parent="Xplw4VOxn85V67Cjq5g1-16">
          <mxGeometry x="340" y="50" width="75" height="20" as="geometry" />
        </mxCell>
        <mxCell id="Xplw4VOxn85V67Cjq5g1-23" value="" style="edgeStyle=orthogonalEdgeStyle;rounded=0;orthogonalLoop=1;jettySize=auto;html=1;fontSize=12;strokeColor=#FF0F1F;" edge="1" parent="1" source="Xplw4VOxn85V67Cjq5g1-24" target="Xplw4VOxn85V67Cjq5g1-25">
          <mxGeometry relative="1" as="geometry" />
        </mxCell>
        <mxCell id="Xplw4VOxn85V67Cjq5g1-24" value="余额变动流水" style="whiteSpace=wrap;html=1;fontStyle=1;startSize=0;strokeColor=#FF0F1F;" vertex="1" parent="1">
          <mxGeometry x="180" y="540" width="120" height="60" as="geometry" />
        </mxCell>
        <mxCell id="Xplw4VOxn85V67Cjq5g1-25" value="代理商余额汇总" style="whiteSpace=wrap;html=1;fontStyle=1;startSize=0;strokeColor=#FF0F1F;" vertex="1" parent="1">
          <mxGeometry x="490" y="540" width="120" height="60" as="geometry" />
        </mxCell>
      </root>
    </mxGraphModel>
  </diagram>
</mxfile>
